name Run_200 02_newCOP3_v24.mot
datacolumns 19
datarows 101
range 0.008333 0.1125
DataType=double
version=3
OpenSimVersion=4.3-2021-08-27-4bc7ad9
endheader
time	R_ground_force_vx	R_ground_force_vy	R_ground_force_vz	R_ground_force_px	R_ground_force_py	R_ground_force_pz	L_ground_force_vx	L_ground_force_vy	L_ground_force_vz	L_ground_force_px	L_ground_force_py	L_ground_force_pz	R_ground_torque_x	R_ground_torque_y	R_ground_torque_z	L_ground_torque_x	L_ground_torque_y	L_ground_torque_z
0.008333	-22.005898	230.625427	-13.812813	0.965707	0	-0.218474	0	0	0	0	0	0	0	-2.666668	0	0	0	0
0.009375	-19.469606	254.612625	-14.133764	0.959377	0	-0.218734	0	0	0	0	0	0	0	-1.757169	0	0	0	0
0.010417	-16.934601	279.395813	-14.443627	0.953995	0	-0.218975	0	0	0	0	0	0	0	-0.8943719999999999	0	0	0	0
0.011458	-14.44486	304.86496	-14.734875	0.949396	0	-0.219206	0	0	0	0	0	0	0	-0.08715299999999999	0	0	0	0
0.0125	-12.043312	330.925812	-15.000073	0.945447	0	-0.219432	0	0	0	0	0	0	-0	0.6561090000000001	-0	0	0	0
0.013542	-9.771708	357.490723	-15.232049	0.942041	0	-0.219658	0	0	0	0	0	0	-0	1.327678	-0	0	0	0
0.014583	-7.670335	384.473083	-15.424037	0.939096	0	-0.219887	0	0	0	0	0	0	-0	1.920599	-0	0	0	0
0.015625	-5.77765	411.78421	-15.569831	0.936542	0	-0.220119	0	0	0	0	0	0	-0	2.428825	-0	0	0	0
0.016667	-4.129865	439.331787	-15.66391	0.934325	0	-0.220354	0	0	0	0	0	0	-0	2.847338	-0	0	0	0
0.017708	-2.760532	467.019287	-15.701564	0.932402	0	-0.220591	0	0	0	0	0	0	-0	3.172249	-0	0	0	0
0.01875	-1.700142	494.746246	-15.679002	0.930736	0	-0.22083	0	0	0	0	0	0	-0	3.40089	-0	0	0	0
0.019792	-0.975757	522.408875	-15.593447	0.929297	0	-0.221068	0	0	0	0	0	0	-0	3.531878	-0	0	0	0
0.020833	-0.610683	549.90155	-15.443213	0.928059	0	-0.221304	0	0	0	0	0	0	-0	3.565165	-0	0	0	0
0.021875	-0.624207	577.11792	-15.227769	0.927001	0	-0.221537	0	0	0	0	0	0	-0	3.502067	-0	0	0	0
0.022917	-1.031384	603.953125	-14.947784	0.926104	0	-0.221765	0	0	0	0	0	0	-0	3.34526	-0	0	0	0
0.023958	-1.842901	630.30542	-14.605146	0.925352	0	-0.221986	0	0	0	0	0	0	-0	3.098767	-0	0	0	0
0.025	-3.065006	656.078247	-14.202962	0.9247300000000001	0	-0.2222	0	0	0	0	0	0	-0	2.767905	-0	0	0	0
0.026042	-4.699508	681.182312	-13.745537	0.924225	0	-0.222405	0	0	0	0	0	0	-0	2.359223	-0	0	0	0
0.027083	-6.74384	705.537292	-13.238331	0.923824	0	-0.222601	0	0	0	0	0	0	-0	1.880406	-0	0	0	0
0.028125	-9.191193	729.073669	-12.687884	0.923516	0	-0.222787	0	0	0	0	0	0	-0	1.34016	-0	0	0	0
0.029167	-12.030703	751.734314	-12.101732	0.923291	0	-0.222964	0	0	0	0	0	0	-0	0.748078	-0	0	0	0
0.030208	-15.247691	773.475281	-11.488284	0.923138	0	-0.22313	0	0	0	0	0	0	-0	0.114489	-0	0	0	0
0.03125	-18.823954	794.267029	-10.856694	0.923047	0	-0.223287	0	0	0	0	0	0	0	-0.549714	0	0	0	0
0.032292	-22.73807	814.094788	-10.216707	0.923009	0	-0.223433	0	0	0	0	0	0	0	-1.233251	0	0	0	0
0.033333	-26.965757	832.958557	-9.578488999999999	0.923013	0	-0.223571	0	0	0	0	0	0	0	-1.924652	0	0	0	0
0.034375	-31.480219	850.872925	-8.952445000000001	0.923052	0	-0.223699	0	0	0	0	0	0	0	-2.612444	0	0	0	0
0.035417	-36.252514	867.8661499999999	-8.349031999999999	0.923114	0	-0.22382	0	0	0	0	0	0	0	-3.28536	0	0	0	0
0.036458	-41.251907	883.979614	-7.778561	0.923192	0	-0.223933	0	0	0	0	0	0	0	-3.932524	0	0	0	0
0.0375	-46.446224	899.265991	-7.250998	0.923276	0	-0.224039	0	0	0	0	0	0	0	-4.54365	0	0	0	0
0.038542	-51.802181	913.787964	-6.775774	0.923357	0	-0.22414	0	0	0	0	0	0	0	-5.109216	0	0	0	0
0.039583	-57.285686	927.616577	-6.361598	0.923428	0	-0.224236	0	0	0	0	0	0	0	-5.620632	0	0	0	0
0.040625	-62.862125	940.828979	-6.016281	0.923479	0	-0.224328	0	0	0	0	0	0	0	-6.070391	0	0	0	0
0.041667	-68.49664300000001	953.5067749999999	-5.746582	0.923504	0	-0.224416	0	0	0	0	0	0	0	-6.452193	0	0	0	0
0.042708	-74.15437300000001	965.734009	-5.558069	0.923495	0	-0.224503	0	0	0	0	0	0	0	-6.761052	0	0	0	0
0.04375	-79.80068199999999	977.595459	-5.455007	0.923446	0	-0.224589	0	0	0	0	0	0	0	-6.993374	0	0	0	0
0.044792	-85.401405	989.174683	-5.440273	0.923352	0	-0.224674	0	0	0	0	0	0	0	-7.14701	0	0	0	0
0.045833	-90.92305	1000.552673	-5.515297	0.923208	0	-0.224759	0	0	0	0	0	0	0	-7.221273	0	0	0	0
0.046875	-96.33306899999999	1011.806458	-5.680041	0.923011	0	-0.224845	0	0	0	0	0	0	0	-7.216935	0	0	0	0
0.047917	-101.60009	1023.008057	-5.933006	0.922756	0	-0.224931	0	0	0	0	0	0	0	-7.136186	0	0	0	0
0.048958	-106.694206	1034.223389	-6.271272	0.922443	0	-0.225019	0	0	0	0	0	0	0	-6.982572	0	0	0	0
0.05	-111.58725	1045.511841	-6.690573	0.922071	0	-0.225107	0	0	0	0	0	0	0	-6.760897	0	0	0	0
0.051042	-116.253143	1056.925903	-7.1854	0.921638	0	-0.225196	0	0	0	0	0	0	0	-6.477106	0	0	0	0
0.052083	-120.668175	1068.510376	-7.749138	0.921145	0	-0.225284	0	0	0	0	0	0	0	-6.138142	0	0	0	0
0.053125	-124.811386	1080.302734	-8.374219	0.920594	0	-0.225372	0	0	0	0	0	0	0	-5.751784	0	0	0	0
0.054167	-128.664841	1092.333008	-9.052305	0.9199850000000001	0	-0.225458	0	0	0	0	0	0	0	-5.326471	0	0	0	0
0.055208	-132.213913	1104.623413	-9.77449	0.91932	0	-0.22554	0	0	0	0	0	0	0	-4.871109	0	0	0	0
0.05625	-135.44754	1117.189087	-10.531507	0.918601	0	-0.225619	0	0	0	0	0	0	0	-4.394874	0	0	0	0
0.057292	-138.358307	1130.037842	-11.313946	0.917831	0	-0.225692	0	0	0	0	0	0	0	-3.907011	0	0	0	0
0.058333	-140.942551	1143.17041	-12.112475	0.91701	0	-0.225757	0	0	0	0	0	0	0	-3.416636	0	0	0	0
0.059375	-143.200241	1156.580933	-12.91806	0.916142	0	-0.225815	0	0	0	0	0	0	0	-2.932538	0	0	0	0
0.060417	-145.134842	1170.256836	-13.722166	0.915228	0	-0.225863	0	0	0	0	0	0	0	-2.462999	0	0	0	0
0.061458	-146.753006	1184.179688	-14.516953	0.91427	0	-0.225901	0	0	0	0	0	0	0	-2.015625	0	0	0	0
0.0625	-148.064148	1198.325073	-15.295445	0.9132710000000001	0	-0.225928	0	0	0	0	0	0	0	-1.597189	0	0	0	0
0.063542	-149.079941	1212.663452	-16.051685	0.912232	0	-0.225942	0	0	0	0	0	0	0	-1.213512	0	0	0	0
0.064583	-149.813828	1227.160767	-16.780846	0.911156	0	-0.225944	0	0	0	0	0	0	0	-0.869348	0	0	0	0
0.065625	-150.280396	1241.778687	-17.47933	0.910044	0	-0.225932	0	0	0	0	0	0	0	-0.568315	0	0	0	0
0.066667	-150.494812	1256.475708	-18.144814	0.908899	0	-0.225908	0	0	0	0	0	0	0	-0.312839	0	0	0	0
0.067708	-150.472336	1271.20813	-18.776281	0.9077229999999999	0	-0.225872	0	0	0	0	0	0	0	-0.104134	0	0	0	0
0.06875000000000001	-150.227783	1285.930298	-19.374002	0.906517	0	-0.225823	0	0	0	0	0	0	-0	0.057783	-0	0	0	0
0.06979200000000001	-149.775284	1300.596069	-19.939487	0.905284	0	-0.225763	0	0	0	0	0	0	-0	0.174062	-0	0	0	0
0.07083299999999999	-149.127914	1315.159058	-20.47541	0.904026	0	-0.225692	0	0	0	0	0	0	-0	0.246952	-0	0	0	0
0.07187499999999999	-148.297729	1329.573975	-20.985497	0.902745	0	-0.225613	0	0	0	0	0	0	-0	0.279709	-0	0	0	0
0.072917	-147.295654	1343.797241	-21.47438	0.901444	0	-0.225525	0	0	0	0	0	0	-0	0.276484	-0	0	0	0
0.073958	-146.131699	1357.787109	-21.947456	0.900122	0	-0.225431	0	0	0	0	0	0	-0	0.242191	-0	0	0	0
0.075	-144.81517	1371.505005	-22.410686	0.898784	0	-0.225332	0	0	0	0	0	0	-0	0.182355	-0	0	0	0
0.076042	-143.354904	1384.915039	-22.870419	0.897429	0	-0.225229	0	0	0	0	0	0	-0	0.102954	-0	0	0	0
0.077083	-141.759689	1397.984741	-23.333183	0.89606	0	-0.225124	0	0	0	0	0	0	-0	0.010245	-0	0	0	0
0.078125	-140.038513	1410.685303	-23.805489	0.894679	0	-0.225018	0	0	0	0	0	0	0	-0.089407	0	0	0	0
0.079167	-138.200943	1422.991089	-24.293617	0.8932870000000001	0	-0.224912	0	0	0	0	0	0	0	-0.189699	0	0	0	0
0.080208	-136.257309	1434.880249	-24.803442	0.891885	0	-0.224808	0	0	0	0	0	0	0	-0.284561	0	0	0	0
0.08125	-134.218887	1446.333984	-25.340242	0.890475	0	-0.224706	0	0	0	0	0	0	0	-0.368312	0	0	0	0
0.082292	-132.097977	1457.33667	-25.908545	0.889058	0	-0.224609	0	0	0	0	0	0	0	-0.435805	0	0	0	0
0.083333	-129.907822	1467.875366	-26.511986	0.887637	0	-0.224515	0	0	0	0	0	0	0	-0.482555	0	0	0	0
0.08437500000000001	-127.662514	1477.940186	-27.153198	0.886213	0	-0.224426	0	0	0	0	0	0	0	-0.504843	0	0	0	0
0.08541700000000001	-125.376709	1487.52356	-27.833733	0.884787	0	-0.224343	0	0	0	0	0	0	0	-0.499808	0	0	0	0
0.08645799999999999	-123.065346	1496.620117	-28.554001	0.883362	0	-0.224265	0	0	0	0	0	0	0	-0.465504	0	0	0	0
0.08749999999999999	-120.743279	1505.226685	-29.313255	0.881939	0	-0.224192	0	0	0	0	0	0	0	-0.400937	0	0	0	0
0.088542	-118.424828	1513.341675	-30.109606	0.88052	0	-0.224124	0	0	0	0	0	0	0	-0.306075	0	0	0	0
0.089583	-116.123466	1520.96582	-30.940062	0.8791060000000001	0	-0.224061	0	0	0	0	0	0	0	-0.181831	0	0	0	0
0.090625	-113.851387	1528.101074	-31.8006	0.877699	0	-0.224003	0	0	0	0	0	0	0	-0.030026	0	0	0	0
0.091667	-111.619186	1534.750977	-32.686275	0.8763	0	-0.223948	0	0	0	0	0	0	-0	0.146682	-0	0	0	0
0.092708	-109.435638	1540.920654	-33.591347	0.874911	0	-0.223896	0	0	0	0	0	0	-0	0.344878	-0	0	0	0
0.09375	-107.307472	1546.616333	-34.509415	0.87353	0	-0.223846	0	0	0	0	0	0	-0	0.5604980000000001	-0	0	0	0
0.094792	-105.239326	1551.845459	-35.433598	0.872161	0	-0.223797	0	0	0	0	0	0	-0	0.78895	-0	0	0	0
0.095833	-103.233704	1556.616821	-36.356709	0.870801	0	-0.223749	0	0	0	0	0	0	-0	1.025246	-0	0	0	0
0.096875	-101.291061	1560.939941	-37.271423	0.869453	0	-0.2237	0	0	0	0	0	0	-0	1.264145	-0	0	0	0
0.097917	-99.409981	1564.825439	-38.170494	0.8681140000000001	0	-0.223649	0	0	0	0	0	0	-0	1.5003	-0	0	0	0
0.098958	-97.587341	1568.284546	-39.046902	0.866785	0	-0.223595	0	0	0	0	0	0	-0	1.728408	-0	0	0	0
0.1	-95.81858099999999	1571.329102	-39.894058	0.865466	0	-0.223537	0	0	0	0	0	0	-0	1.943349	-0	0	0	0
0.101042	-94.097992	1573.971436	-40.705944	0.864155	0	-0.223476	0	0	0	0	0	0	-0	2.14033	-0	0	0	0
0.102083	-92.41896800000001	1576.224243	-41.477272	0.862851	0	-0.223409	0	0	0	0	0	0	-0	2.315012	-0	0	0	0
0.103125	-90.774315	1578.10022	-42.203598	0.861553	0	-0.223336	0	0	0	0	0	0	-0	2.463619	-0	0	0	0
0.104167	-89.156509	1579.612183	-42.881424	0.8602610000000001	0	-0.223258	0	0	0	0	0	0	-0	2.583041	-0	0	0	0
0.105208	-87.557907	1580.772705	-43.50827	0.858973	0	-0.223173	0	0	0	0	0	0	-0	2.670911	-0	0	0	0
0.10625	-85.970963	1581.593872	-44.082729	0.857688	0	-0.223082	0	0	0	0	0	0	-0	2.725663	-0	0	0	0
0.107292	-84.388367	1582.087524	-44.604458	0.856405	0	-0.222984	0	0	0	0	0	0	-0	2.746564	-0	0	0	0
0.108333	-82.803192	1582.264526	-45.074184	0.855124	0	-0.22288	0	0	0	0	0	0	-0	2.733735	-0	0	0	0
0.109375	-81.208984	1582.135498	-45.493652	0.853842	0	-0.22277	0	0	0	0	0	0	-0	2.688136	-0	0	0	0
0.110417	-79.599777	1581.709595	-45.865559	0.852559	0	-0.222655	0	0	0	0	0	0	-0	2.611536	-0	0	0	0
0.111458	-77.97017700000001	1580.995483	-46.193455	0.851275	0	-0.222534	0	0	0	0	0	0	-0	2.506461	-0	0	0	0
0.1125	-76.31538399999999	1580.00061	-46.481632	0.849988	0	-0.22241	0	0	0	0	0	0	-0	2.376122	-0	0	0	0
